<mxfile host="app.diagrams.net" modified="2024-04-30T01:29:06.126Z" agent="Mozilla/5.0 (Macintosh; Intel Mac OS X 10_15_7) AppleWebKit/537.36 (KHTML, like Gecko) Chrome/124.0.0.0 Safari/537.36" etag="_Tas83JsLnd8pbMVXRaZ" version="24.0.1" type="device">
  <diagram name="Page-1" id="-T0CbF-oEUBN1iK_dCzu">
    <mxGraphModel dx="2375" dy="1502" grid="1" gridSize="10" guides="1" tooltips="1" connect="1" arrows="1" fold="1" page="1" pageScale="1" pageWidth="850" pageHeight="1100" math="0" shadow="0">
      <root>
        <mxCell id="0" />
        <mxCell id="1" parent="0" />
        <mxCell id="Jphdo2eDMqujPGMOQ4nd-25" style="edgeStyle=orthogonalEdgeStyle;rounded=0;orthogonalLoop=1;jettySize=auto;html=1;exitX=0.5;exitY=1;exitDx=0;exitDy=0;entryX=0.5;entryY=0;entryDx=0;entryDy=0;" parent="1" source="Jphdo2eDMqujPGMOQ4nd-1" target="Jphdo2eDMqujPGMOQ4nd-2" edge="1">
          <mxGeometry relative="1" as="geometry">
            <Array as="points">
              <mxPoint x="1250" y="890" />
              <mxPoint x="940" y="890" />
            </Array>
          </mxGeometry>
        </mxCell>
        <mxCell id="Jphdo2eDMqujPGMOQ4nd-1" value="START" style="ellipse;whiteSpace=wrap;html=1;" parent="1" vertex="1">
          <mxGeometry x="1190" y="850" width="120" height="80" as="geometry" />
        </mxCell>
        <mxCell id="Jphdo2eDMqujPGMOQ4nd-26" style="edgeStyle=orthogonalEdgeStyle;rounded=0;orthogonalLoop=1;jettySize=auto;html=1;exitX=0.5;exitY=1;exitDx=0;exitDy=0;entryX=0.5;entryY=0;entryDx=0;entryDy=0;" parent="1" source="Jphdo2eDMqujPGMOQ4nd-2" target="Jphdo2eDMqujPGMOQ4nd-4" edge="1">
          <mxGeometry relative="1" as="geometry" />
        </mxCell>
        <mxCell id="Jphdo2eDMqujPGMOQ4nd-2" value="Bot Introduction&lt;br&gt;asks user for User ID" style="ellipse;whiteSpace=wrap;html=1;" parent="1" vertex="1">
          <mxGeometry x="870" y="910" width="140" height="80" as="geometry" />
        </mxCell>
        <mxCell id="Jphdo2eDMqujPGMOQ4nd-28" style="edgeStyle=orthogonalEdgeStyle;rounded=0;orthogonalLoop=1;jettySize=auto;html=1;exitX=0.5;exitY=1;exitDx=0;exitDy=0;entryX=0.5;entryY=0;entryDx=0;entryDy=0;" parent="1" source="Jphdo2eDMqujPGMOQ4nd-3" target="Jphdo2eDMqujPGMOQ4nd-5" edge="1">
          <mxGeometry relative="1" as="geometry" />
        </mxCell>
        <mxCell id="Jphdo2eDMqujPGMOQ4nd-3" value="Take the response and pass it in the validation function" style="ellipse;whiteSpace=wrap;html=1;" parent="1" vertex="1">
          <mxGeometry x="597.5" y="710" width="120" height="80" as="geometry" />
        </mxCell>
        <mxCell id="Jphdo2eDMqujPGMOQ4nd-27" style="edgeStyle=orthogonalEdgeStyle;rounded=0;orthogonalLoop=1;jettySize=auto;html=1;exitX=0.5;exitY=1;exitDx=0;exitDy=0;entryX=0.5;entryY=0;entryDx=0;entryDy=0;" parent="1" source="Jphdo2eDMqujPGMOQ4nd-4" target="Jphdo2eDMqujPGMOQ4nd-3" edge="1">
          <mxGeometry relative="1" as="geometry" />
        </mxCell>
        <mxCell id="Jphdo2eDMqujPGMOQ4nd-4" value="User_response" style="rounded=1;whiteSpace=wrap;html=1;" parent="1" vertex="1">
          <mxGeometry x="780" y="750" width="120" height="60" as="geometry" />
        </mxCell>
        <mxCell id="Jphdo2eDMqujPGMOQ4nd-29" style="edgeStyle=orthogonalEdgeStyle;rounded=0;orthogonalLoop=1;jettySize=auto;html=1;exitX=0;exitY=1;exitDx=0;exitDy=0;entryX=0.5;entryY=0;entryDx=0;entryDy=0;" parent="1" source="Jphdo2eDMqujPGMOQ4nd-5" target="Jphdo2eDMqujPGMOQ4nd-6" edge="1">
          <mxGeometry relative="1" as="geometry" />
        </mxCell>
        <mxCell id="Jphdo2eDMqujPGMOQ4nd-30" style="edgeStyle=orthogonalEdgeStyle;rounded=0;orthogonalLoop=1;jettySize=auto;html=1;exitX=1;exitY=1;exitDx=0;exitDy=0;entryX=0.5;entryY=0;entryDx=0;entryDy=0;" parent="1" source="Jphdo2eDMqujPGMOQ4nd-5" target="Jphdo2eDMqujPGMOQ4nd-7" edge="1">
          <mxGeometry relative="1" as="geometry" />
        </mxCell>
        <mxCell id="Jphdo2eDMqujPGMOQ4nd-5" value="Does the User ID already Exist ?" style="rhombus;whiteSpace=wrap;html=1;" parent="1" vertex="1">
          <mxGeometry x="330" y="730" width="180" height="200" as="geometry" />
        </mxCell>
        <mxCell id="Jphdo2eDMqujPGMOQ4nd-34" style="edgeStyle=orthogonalEdgeStyle;rounded=0;orthogonalLoop=1;jettySize=auto;html=1;exitX=0.5;exitY=1;exitDx=0;exitDy=0;entryX=0.5;entryY=0;entryDx=0;entryDy=0;" parent="1" source="Jphdo2eDMqujPGMOQ4nd-6" target="Jphdo2eDMqujPGMOQ4nd-11" edge="1">
          <mxGeometry relative="1" as="geometry">
            <Array as="points">
              <mxPoint x="220" y="1230" />
              <mxPoint x="420" y="1230" />
            </Array>
          </mxGeometry>
        </mxCell>
        <mxCell id="Jphdo2eDMqujPGMOQ4nd-6" value="&quot;Welcome&lt;br&gt;Back&quot;" style="ellipse;whiteSpace=wrap;html=1;" parent="1" vertex="1">
          <mxGeometry x="160" y="1080" width="120" height="80" as="geometry" />
        </mxCell>
        <mxCell id="4xiPLt3zUw_GnUcfgcog-10" value="" style="edgeStyle=orthogonalEdgeStyle;rounded=0;orthogonalLoop=1;jettySize=auto;html=1;" parent="1" source="0BOocyFLjFoxE8ah1-cr-1" target="4xiPLt3zUw_GnUcfgcog-9" edge="1">
          <mxGeometry relative="1" as="geometry" />
        </mxCell>
        <mxCell id="Jphdo2eDMqujPGMOQ4nd-7" value="Ask for User Name" style="ellipse;whiteSpace=wrap;html=1;" parent="1" vertex="1">
          <mxGeometry x="564.38" y="900" width="120" height="80" as="geometry" />
        </mxCell>
        <mxCell id="Jphdo2eDMqujPGMOQ4nd-35" style="edgeStyle=orthogonalEdgeStyle;rounded=0;orthogonalLoop=1;jettySize=auto;html=1;exitX=0.5;exitY=1;exitDx=0;exitDy=0;entryX=0.5;entryY=0;entryDx=0;entryDy=0;" parent="1" source="Jphdo2eDMqujPGMOQ4nd-11" target="Jphdo2eDMqujPGMOQ4nd-12" edge="1">
          <mxGeometry relative="1" as="geometry" />
        </mxCell>
        <mxCell id="Jphdo2eDMqujPGMOQ4nd-11" value="&lt;pre style=&quot;box-sizing: unset; font-family: var(--jp-code-font-family); font-size: var(--jp-code-font-size); line-height: normal; color: var(--jp-content-font-color1); border: none; margin-top: 0px; margin-bottom: 0px; padding: 0px; overflow: auto; word-break: break-all; overflow-wrap: break-word; text-wrap: wrap; text-align: left; background-color: rgb(255, 255, 255);&quot;&gt;Hello! How can&lt;/pre&gt;&lt;pre style=&quot;box-sizing: unset; font-family: var(--jp-code-font-family); font-size: var(--jp-code-font-size); line-height: normal; color: var(--jp-content-font-color1); border: none; margin-top: 0px; margin-bottom: 0px; padding: 0px; overflow: auto; word-break: break-all; overflow-wrap: break-word; text-wrap: wrap; text-align: left; background-color: rgb(255, 255, 255);&quot;&gt; I assist you today?&lt;/pre&gt;" style="ellipse;whiteSpace=wrap;html=1;" parent="1" vertex="1">
          <mxGeometry x="350" y="1340" width="140" height="80" as="geometry" />
        </mxCell>
        <mxCell id="Jphdo2eDMqujPGMOQ4nd-36" style="edgeStyle=orthogonalEdgeStyle;rounded=0;orthogonalLoop=1;jettySize=auto;html=1;exitX=0.5;exitY=1;exitDx=0;exitDy=0;entryX=0.5;entryY=0;entryDx=0;entryDy=0;" parent="1" source="Jphdo2eDMqujPGMOQ4nd-12" target="Jphdo2eDMqujPGMOQ4nd-13" edge="1">
          <mxGeometry relative="1" as="geometry" />
        </mxCell>
        <mxCell id="Jphdo2eDMqujPGMOQ4nd-12" value="Loop until flag == False" style="ellipse;whiteSpace=wrap;html=1;" parent="1" vertex="1">
          <mxGeometry x="325" y="1520" width="190" height="80" as="geometry" />
        </mxCell>
        <mxCell id="Jphdo2eDMqujPGMOQ4nd-37" style="edgeStyle=orthogonalEdgeStyle;rounded=0;orthogonalLoop=1;jettySize=auto;html=1;exitX=0.5;exitY=1;exitDx=0;exitDy=0;entryX=0.5;entryY=0;entryDx=0;entryDy=0;" parent="1" source="Jphdo2eDMqujPGMOQ4nd-13" target="Jphdo2eDMqujPGMOQ4nd-18" edge="1">
          <mxGeometry relative="1" as="geometry" />
        </mxCell>
        <mxCell id="Jphdo2eDMqujPGMOQ4nd-13" value="User response" style="rounded=1;whiteSpace=wrap;html=1;" parent="1" vertex="1">
          <mxGeometry x="360" y="1670" width="120" height="60" as="geometry" />
        </mxCell>
        <mxCell id="Jphdo2eDMqujPGMOQ4nd-48" style="edgeStyle=orthogonalEdgeStyle;rounded=0;orthogonalLoop=1;jettySize=auto;html=1;exitX=0.5;exitY=1;exitDx=0;exitDy=0;" parent="1" source="Jphdo2eDMqujPGMOQ4nd-14" edge="1">
          <mxGeometry relative="1" as="geometry">
            <mxPoint x="420" y="2440" as="targetPoint" />
            <Array as="points">
              <mxPoint x="220" y="2360" />
              <mxPoint x="420" y="2360" />
            </Array>
          </mxGeometry>
        </mxCell>
        <mxCell id="Jphdo2eDMqujPGMOQ4nd-14" value="print Goodbye" style="ellipse;whiteSpace=wrap;html=1;" parent="1" vertex="1">
          <mxGeometry x="160" y="1960" width="120" height="80" as="geometry" />
        </mxCell>
        <mxCell id="Jphdo2eDMqujPGMOQ4nd-15" value="STOP" style="ellipse;whiteSpace=wrap;html=1;" parent="1" vertex="1">
          <mxGeometry x="360" y="2600" width="120" height="80" as="geometry" />
        </mxCell>
        <mxCell id="Jphdo2eDMqujPGMOQ4nd-38" style="edgeStyle=orthogonalEdgeStyle;rounded=0;orthogonalLoop=1;jettySize=auto;html=1;exitX=0;exitY=1;exitDx=0;exitDy=0;entryX=0.5;entryY=0;entryDx=0;entryDy=0;" parent="1" source="Jphdo2eDMqujPGMOQ4nd-18" target="Jphdo2eDMqujPGMOQ4nd-14" edge="1">
          <mxGeometry relative="1" as="geometry" />
        </mxCell>
        <mxCell id="Jphdo2eDMqujPGMOQ4nd-39" style="edgeStyle=orthogonalEdgeStyle;rounded=0;orthogonalLoop=1;jettySize=auto;html=1;exitX=1;exitY=1;exitDx=0;exitDy=0;entryX=0.5;entryY=0;entryDx=0;entryDy=0;" parent="1" source="Jphdo2eDMqujPGMOQ4nd-18" target="4xiPLt3zUw_GnUcfgcog-13" edge="1">
          <mxGeometry relative="1" as="geometry">
            <mxPoint x="620" y="1970" as="targetPoint" />
          </mxGeometry>
        </mxCell>
        <mxCell id="Jphdo2eDMqujPGMOQ4nd-18" value="== quit ?" style="rhombus;whiteSpace=wrap;html=1;" parent="1" vertex="1">
          <mxGeometry x="370" y="1770" width="120" height="110" as="geometry" />
        </mxCell>
        <mxCell id="Jphdo2eDMqujPGMOQ4nd-51" style="edgeStyle=orthogonalEdgeStyle;rounded=0;orthogonalLoop=1;jettySize=auto;html=1;exitX=0.5;exitY=1;exitDx=0;exitDy=0;entryX=0.5;entryY=0;entryDx=0;entryDy=0;" parent="1" source="Jphdo2eDMqujPGMOQ4nd-50" target="Jphdo2eDMqujPGMOQ4nd-15" edge="1">
          <mxGeometry relative="1" as="geometry" />
        </mxCell>
        <mxCell id="Jphdo2eDMqujPGMOQ4nd-50" value="set flag = False" style="rounded=1;whiteSpace=wrap;html=1;" parent="1" vertex="1">
          <mxGeometry x="360" y="2440" width="120" height="60" as="geometry" />
        </mxCell>
        <mxCell id="Jphdo2eDMqujPGMOQ4nd-55" value="YES" style="text;html=1;align=center;verticalAlign=middle;whiteSpace=wrap;rounded=0;" parent="1" vertex="1">
          <mxGeometry x="265" y="840" width="60" height="30" as="geometry" />
        </mxCell>
        <mxCell id="Jphdo2eDMqujPGMOQ4nd-56" value="NO" style="text;html=1;align=center;verticalAlign=middle;whiteSpace=wrap;rounded=0;" parent="1" vertex="1">
          <mxGeometry x="515" y="850" width="60" height="30" as="geometry" />
        </mxCell>
        <mxCell id="Jphdo2eDMqujPGMOQ4nd-57" value="YES" style="text;html=1;align=center;verticalAlign=middle;whiteSpace=wrap;rounded=0;" parent="1" vertex="1">
          <mxGeometry x="270" y="1820" width="60" height="30" as="geometry" />
        </mxCell>
        <mxCell id="Jphdo2eDMqujPGMOQ4nd-58" value="NO" style="text;html=1;align=center;verticalAlign=middle;whiteSpace=wrap;rounded=0;" parent="1" vertex="1">
          <mxGeometry x="515" y="1820" width="60" height="30" as="geometry" />
        </mxCell>
        <mxCell id="4xiPLt3zUw_GnUcfgcog-11" style="edgeStyle=orthogonalEdgeStyle;rounded=0;orthogonalLoop=1;jettySize=auto;html=1;" parent="1" source="4xiPLt3zUw_GnUcfgcog-9" target="Jphdo2eDMqujPGMOQ4nd-11" edge="1">
          <mxGeometry relative="1" as="geometry">
            <Array as="points">
              <mxPoint x="625" y="1230" />
              <mxPoint x="420" y="1230" />
            </Array>
          </mxGeometry>
        </mxCell>
        <mxCell id="4xiPLt3zUw_GnUcfgcog-9" value="Store the Name and User ID in user Model" style="ellipse;whiteSpace=wrap;html=1;" parent="1" vertex="1">
          <mxGeometry x="550" y="1140" width="150" height="80" as="geometry" />
        </mxCell>
        <mxCell id="4xiPLt3zUw_GnUcfgcog-16" value="" style="edgeStyle=orthogonalEdgeStyle;rounded=0;orthogonalLoop=1;jettySize=auto;html=1;" parent="1" source="4xiPLt3zUw_GnUcfgcog-13" target="4xiPLt3zUw_GnUcfgcog-15" edge="1">
          <mxGeometry relative="1" as="geometry" />
        </mxCell>
        <mxCell id="4xiPLt3zUw_GnUcfgcog-19" value="" style="edgeStyle=orthogonalEdgeStyle;rounded=0;orthogonalLoop=1;jettySize=auto;html=1;" parent="1" source="4xiPLt3zUw_GnUcfgcog-13" target="4xiPLt3zUw_GnUcfgcog-22" edge="1">
          <mxGeometry relative="1" as="geometry">
            <mxPoint x="810" y="2060" as="targetPoint" />
          </mxGeometry>
        </mxCell>
        <mxCell id="4xiPLt3zUw_GnUcfgcog-13" value="Check for the personal Information ?" style="rhombus;whiteSpace=wrap;html=1;" parent="1" vertex="1">
          <mxGeometry x="565" y="1950" width="185" height="80" as="geometry" />
        </mxCell>
        <mxCell id="4xiPLt3zUw_GnUcfgcog-21" style="edgeStyle=orthogonalEdgeStyle;rounded=0;orthogonalLoop=1;jettySize=auto;html=1;" parent="1" source="4xiPLt3zUw_GnUcfgcog-15" edge="1">
          <mxGeometry relative="1" as="geometry">
            <mxPoint x="770" y="2120" as="targetPoint" />
          </mxGeometry>
        </mxCell>
        <mxCell id="4xiPLt3zUw_GnUcfgcog-15" value="Save in the User Model" style="ellipse;whiteSpace=wrap;html=1;" parent="1" vertex="1">
          <mxGeometry x="470" y="2070" width="80" height="100" as="geometry" />
        </mxCell>
        <mxCell id="4xiPLt3zUw_GnUcfgcog-17" value="YES" style="text;html=1;align=center;verticalAlign=middle;whiteSpace=wrap;rounded=0;" parent="1" vertex="1">
          <mxGeometry x="470" y="1970" width="60" height="30" as="geometry" />
        </mxCell>
        <mxCell id="4xiPLt3zUw_GnUcfgcog-20" value="NO" style="text;html=1;align=center;verticalAlign=middle;whiteSpace=wrap;rounded=0;" parent="1" vertex="1">
          <mxGeometry x="770" y="1960" width="60" height="30" as="geometry" />
        </mxCell>
        <mxCell id="4xiPLt3zUw_GnUcfgcog-24" value="" style="edgeStyle=orthogonalEdgeStyle;rounded=0;orthogonalLoop=1;jettySize=auto;html=1;" parent="1" source="4xiPLt3zUw_GnUcfgcog-22" target="4xiPLt3zUw_GnUcfgcog-23" edge="1">
          <mxGeometry relative="1" as="geometry" />
        </mxCell>
        <mxCell id="4xiPLt3zUw_GnUcfgcog-28" value="" style="edgeStyle=orthogonalEdgeStyle;rounded=0;orthogonalLoop=1;jettySize=auto;html=1;" parent="1" source="4xiPLt3zUw_GnUcfgcog-22" target="4xiPLt3zUw_GnUcfgcog-36" edge="1">
          <mxGeometry relative="1" as="geometry">
            <mxPoint x="1020" y="2120" as="targetPoint" />
          </mxGeometry>
        </mxCell>
        <mxCell id="4xiPLt3zUw_GnUcfgcog-22" value="Check for the greetings ?" style="rhombus;whiteSpace=wrap;html=1;" parent="1" vertex="1">
          <mxGeometry x="770" y="2080" width="180" height="80" as="geometry" />
        </mxCell>
        <mxCell id="4xiPLt3zUw_GnUcfgcog-26" style="edgeStyle=orthogonalEdgeStyle;rounded=0;orthogonalLoop=1;jettySize=auto;html=1;entryX=1;entryY=0.5;entryDx=0;entryDy=0;" parent="1" source="4xiPLt3zUw_GnUcfgcog-23" target="Jphdo2eDMqujPGMOQ4nd-12" edge="1">
          <mxGeometry relative="1" as="geometry">
            <Array as="points">
              <mxPoint x="1490" y="2440" />
              <mxPoint x="1490" y="1560" />
            </Array>
          </mxGeometry>
        </mxCell>
        <mxCell id="4xiPLt3zUw_GnUcfgcog-23" value="Response From the Greeting response list" style="ellipse;whiteSpace=wrap;html=1;" parent="1" vertex="1">
          <mxGeometry x="805" y="2400" width="110" height="80" as="geometry" />
        </mxCell>
        <mxCell id="4xiPLt3zUw_GnUcfgcog-25" value="YES" style="text;html=1;align=center;verticalAlign=middle;whiteSpace=wrap;rounded=0;" parent="1" vertex="1">
          <mxGeometry x="810" y="2180" width="60" height="30" as="geometry" />
        </mxCell>
        <mxCell id="4xiPLt3zUw_GnUcfgcog-32" value="NO" style="text;html=1;align=center;verticalAlign=middle;whiteSpace=wrap;rounded=0;" parent="1" vertex="1">
          <mxGeometry x="950" y="2090" width="60" height="30" as="geometry" />
        </mxCell>
        <mxCell id="4xiPLt3zUw_GnUcfgcog-39" value="" style="edgeStyle=orthogonalEdgeStyle;rounded=0;orthogonalLoop=1;jettySize=auto;html=1;" parent="1" source="4xiPLt3zUw_GnUcfgcog-36" target="4xiPLt3zUw_GnUcfgcog-38" edge="1">
          <mxGeometry relative="1" as="geometry" />
        </mxCell>
        <mxCell id="4xiPLt3zUw_GnUcfgcog-44" value="" style="edgeStyle=orthogonalEdgeStyle;rounded=0;orthogonalLoop=1;jettySize=auto;html=1;" parent="1" source="4xiPLt3zUw_GnUcfgcog-36" target="4xiPLt3zUw_GnUcfgcog-43" edge="1">
          <mxGeometry relative="1" as="geometry" />
        </mxCell>
        <mxCell id="aSYIbtY54onmYopjylWN-8" value="" style="edgeStyle=orthogonalEdgeStyle;rounded=0;orthogonalLoop=1;jettySize=auto;html=1;" edge="1" parent="1" source="4xiPLt3zUw_GnUcfgcog-36" target="aSYIbtY54onmYopjylWN-7">
          <mxGeometry relative="1" as="geometry" />
        </mxCell>
        <mxCell id="4xiPLt3zUw_GnUcfgcog-36" value="Check for the Like and Dislike in the Response&amp;nbsp;" style="rhombus;whiteSpace=wrap;html=1;" parent="1" vertex="1">
          <mxGeometry x="1030" y="2070" width="180" height="90" as="geometry" />
        </mxCell>
        <mxCell id="4xiPLt3zUw_GnUcfgcog-41" style="edgeStyle=orthogonalEdgeStyle;rounded=0;orthogonalLoop=1;jettySize=auto;html=1;entryX=1;entryY=0.5;entryDx=0;entryDy=0;" parent="1" source="4xiPLt3zUw_GnUcfgcog-38" target="Jphdo2eDMqujPGMOQ4nd-12" edge="1">
          <mxGeometry relative="1" as="geometry">
            <mxPoint x="1260" y="2070" as="targetPoint" />
            <Array as="points">
              <mxPoint x="1510" y="2280" />
              <mxPoint x="1510" y="1540" />
              <mxPoint x="515" y="1540" />
            </Array>
          </mxGeometry>
        </mxCell>
        <mxCell id="4xiPLt3zUw_GnUcfgcog-38" value="Update the User Model accordingly" style="ellipse;whiteSpace=wrap;html=1;" parent="1" vertex="1">
          <mxGeometry x="1290" y="2250" width="80" height="80" as="geometry" />
        </mxCell>
        <mxCell id="4xiPLt3zUw_GnUcfgcog-40" value="YES" style="text;html=1;align=center;verticalAlign=middle;whiteSpace=wrap;rounded=0;" parent="1" vertex="1">
          <mxGeometry x="1080" y="2170" width="60" height="30" as="geometry" />
        </mxCell>
        <mxCell id="4xiPLt3zUw_GnUcfgcog-43" value="get response from the Models" style="ellipse;whiteSpace=wrap;html=1;" parent="1" vertex="1">
          <mxGeometry x="1055" y="1660" width="130" height="80" as="geometry" />
        </mxCell>
        <mxCell id="4xiPLt3zUw_GnUcfgcog-47" value="NO" style="text;html=1;align=center;verticalAlign=middle;whiteSpace=wrap;rounded=0;" parent="1" vertex="1">
          <mxGeometry x="1080" y="1975" width="60" height="30" as="geometry" />
        </mxCell>
        <mxCell id="4xiPLt3zUw_GnUcfgcog-48" style="edgeStyle=orthogonalEdgeStyle;rounded=0;orthogonalLoop=1;jettySize=auto;html=1;entryX=0.958;entryY=0.759;entryDx=0;entryDy=0;entryPerimeter=0;" parent="1" source="4xiPLt3zUw_GnUcfgcog-43" target="Jphdo2eDMqujPGMOQ4nd-12" edge="1">
          <mxGeometry relative="1" as="geometry">
            <Array as="points">
              <mxPoint x="1120" y="1581" />
            </Array>
          </mxGeometry>
        </mxCell>
        <mxCell id="0BOocyFLjFoxE8ah1-cr-2" value="" style="edgeStyle=orthogonalEdgeStyle;rounded=0;orthogonalLoop=1;jettySize=auto;html=1;" parent="1" source="Jphdo2eDMqujPGMOQ4nd-7" target="0BOocyFLjFoxE8ah1-cr-1" edge="1">
          <mxGeometry relative="1" as="geometry">
            <mxPoint x="625" y="990" as="sourcePoint" />
            <mxPoint x="625" y="1150" as="targetPoint" />
          </mxGeometry>
        </mxCell>
        <mxCell id="0BOocyFLjFoxE8ah1-cr-1" value="Create The User model json File" style="ellipse;whiteSpace=wrap;html=1;aspect=fixed;" parent="1" vertex="1">
          <mxGeometry x="579.38" y="1010" width="91.25" height="91.25" as="geometry" />
        </mxCell>
        <mxCell id="aSYIbtY54onmYopjylWN-9" value="" style="edgeStyle=orthogonalEdgeStyle;rounded=0;orthogonalLoop=1;jettySize=auto;html=1;" edge="1" parent="1" source="aSYIbtY54onmYopjylWN-7" target="4xiPLt3zUw_GnUcfgcog-38">
          <mxGeometry relative="1" as="geometry" />
        </mxCell>
        <mxCell id="aSYIbtY54onmYopjylWN-13" value="" style="edgeStyle=orthogonalEdgeStyle;rounded=0;orthogonalLoop=1;jettySize=auto;html=1;" edge="1" parent="1" source="aSYIbtY54onmYopjylWN-7" target="aSYIbtY54onmYopjylWN-12">
          <mxGeometry relative="1" as="geometry" />
        </mxCell>
        <mxCell id="aSYIbtY54onmYopjylWN-7" value="Check if already presents" style="rhombus;whiteSpace=wrap;html=1;" vertex="1" parent="1">
          <mxGeometry x="1030" y="2200" width="180" height="80" as="geometry" />
        </mxCell>
        <mxCell id="aSYIbtY54onmYopjylWN-10" value="NO" style="text;html=1;align=center;verticalAlign=middle;whiteSpace=wrap;rounded=0;" vertex="1" parent="1">
          <mxGeometry x="1240" y="2240" width="60" height="55" as="geometry" />
        </mxCell>
        <mxCell id="aSYIbtY54onmYopjylWN-11" value="Yes" style="text;html=1;align=center;verticalAlign=middle;whiteSpace=wrap;rounded=0;" vertex="1" parent="1">
          <mxGeometry x="1080" y="2280" width="60" height="55" as="geometry" />
        </mxCell>
        <mxCell id="aSYIbtY54onmYopjylWN-14" style="edgeStyle=orthogonalEdgeStyle;rounded=0;orthogonalLoop=1;jettySize=auto;html=1;" edge="1" parent="1" source="aSYIbtY54onmYopjylWN-12" target="4xiPLt3zUw_GnUcfgcog-38">
          <mxGeometry relative="1" as="geometry" />
        </mxCell>
        <mxCell id="aSYIbtY54onmYopjylWN-12" value="Print(&quot;&lt;span style=&quot;background-color: rgb(255, 255, 255); color: var(--jp-content-font-color1); font-family: var(--jp-code-font-family); font-size: var(--jp-code-font-size); text-align: left;&quot;&gt;You still like&lt;/span&gt;&lt;span style=&quot;background-color: initial;&quot;&gt;&quot;)&lt;/span&gt;" style="ellipse;whiteSpace=wrap;html=1;" vertex="1" parent="1">
          <mxGeometry x="1080" y="2340" width="80" height="80" as="geometry" />
        </mxCell>
      </root>
    </mxGraphModel>
  </diagram>
</mxfile>
